G75*
%MOIN*%
%OFA0B0*%
%FSLAX24Y24*%
%IPPOS*%
%LPD*%
%AMOC8*
5,1,8,0,0,1.08239X$1,22.5*
%
%ADD10C,0.0867*%
%ADD11R,0.0710X0.0789*%
%ADD12R,0.0789X0.0710*%
%ADD13R,0.0780X0.0780*%
%ADD14C,0.0640*%
%ADD15R,0.0552X0.1064*%
%ADD16C,0.0434*%
%ADD17R,0.0808X0.0808*%
%ADD18C,0.0808*%
%ADD19R,0.0730X0.0730*%
%ADD20C,0.0730*%
%ADD21OC8,0.0710*%
%ADD22C,0.0710*%
%ADD23R,0.0674X0.0674*%
%ADD24R,0.0595X0.0595*%
D10*
X011470Y005601D03*
X011470Y014851D03*
D11*
X005521Y007351D03*
X004419Y007351D03*
D12*
X002720Y007153D03*
X002720Y006050D03*
X001720Y006050D03*
X001720Y007153D03*
D13*
X001970Y009101D03*
X001970Y010101D03*
X001970Y011101D03*
X001970Y012101D03*
X001970Y013101D03*
X001970Y014101D03*
X001970Y015101D03*
X001970Y016101D03*
X001970Y017101D03*
X001970Y018101D03*
X001970Y019101D03*
X001970Y020101D03*
X007970Y020101D03*
X007970Y019101D03*
X007970Y018101D03*
X007970Y017101D03*
X007970Y016101D03*
X007970Y015101D03*
X007970Y014101D03*
X007970Y013101D03*
X007970Y012101D03*
X007970Y011101D03*
X007970Y010101D03*
X007970Y009101D03*
D14*
X006750Y010101D02*
X006190Y010101D01*
X006190Y011101D02*
X006750Y011101D01*
X006750Y012101D02*
X006190Y012101D01*
X006190Y013101D02*
X006750Y013101D01*
X006750Y014101D02*
X006190Y014101D01*
X006190Y015101D02*
X006750Y015101D01*
X006750Y016101D02*
X006190Y016101D01*
X006190Y017101D02*
X006750Y017101D01*
X006750Y018101D02*
X006190Y018101D01*
X006190Y019101D02*
X006750Y019101D01*
X003750Y019101D02*
X003190Y019101D01*
X003190Y018101D02*
X003750Y018101D01*
X003750Y017101D02*
X003190Y017101D01*
X003190Y016101D02*
X003750Y016101D01*
X003750Y015101D02*
X003190Y015101D01*
X003190Y014101D02*
X003750Y014101D01*
X003750Y013101D02*
X003190Y013101D01*
X003190Y012101D02*
X003750Y012101D01*
X003750Y011101D02*
X003190Y011101D01*
X003190Y010101D02*
X003750Y010101D01*
D15*
X008986Y002684D03*
X009970Y002684D03*
X010954Y002684D03*
D16*
X011368Y001601D03*
X008572Y001601D03*
D17*
X010031Y020351D03*
D18*
X011409Y020351D03*
D19*
X001720Y003851D03*
X002720Y003851D03*
X007220Y004851D03*
D20*
X007220Y003851D03*
X006220Y003851D03*
X006220Y004851D03*
X005220Y004851D03*
X005220Y003851D03*
X002720Y004851D03*
X001720Y004851D03*
D21*
X010470Y017601D03*
D22*
X011470Y017601D03*
D23*
X005220Y012601D03*
X005220Y008851D03*
X007470Y008101D03*
X002470Y008101D03*
D24*
X008720Y004851D03*
X010470Y004851D03*
M02*
