%
M48
M72
T01C0.0315
T02C0.0320
T03C0.0350
T04C0.0354
T05C0.0394
T06C0.0787
%
T01
X8720Y4851
X10470Y4851
T02
X6470Y10101
X6470Y11101
X6470Y12101
X6470Y13101
X6470Y14101
X6470Y15101
X6470Y16101
X6470Y17101
X6470Y18101
X6470Y19101
X3470Y19101
X3470Y18101
X3470Y17101
X3470Y16101
X3470Y15101
X3470Y14101
X3470Y13101
X3470Y12101
X3470Y11101
X3470Y10101
X10470Y17601
X11470Y17601
T03
X1720Y3851
X1720Y4851
X2720Y4851
X2720Y3851
X5220Y3851
X5220Y4851
X6220Y4851
X6220Y3851
X7220Y3851
X7220Y4851
T04
X8572Y1601
X11368Y1601
T05
X7470Y8101
X7970Y9101
X7970Y10101
X7970Y11101
X7970Y12101
X7970Y13101
X7970Y14101
X7970Y15101
X7970Y16101
X7970Y17101
X7970Y18101
X7970Y19101
X7970Y20101
X10031Y20351
X11409Y20351
X5220Y12601
X5220Y8851
X2470Y8101
X1970Y9101
X1970Y10101
X1970Y11101
X1970Y12101
X1970Y13101
X1970Y14101
X1970Y15101
X1970Y16101
X1970Y17101
X1970Y18101
X1970Y19101
X1970Y20101
T06
X11470Y14851
X11470Y5601
M30
