G75*
%MOIN*%
%OFA0B0*%
%FSLAX24Y24*%
%IPPOS*%
%LPD*%
%AMOC8*
5,1,8,0,0,1.08239X$1,22.5*
%
%ADD10R,0.0630X0.0709*%
%ADD11R,0.0709X0.0630*%
%ADD12R,0.0700X0.0700*%
%ADD13C,0.0560*%
%ADD14R,0.0472X0.0984*%
%ADD15R,0.0728X0.0728*%
%ADD16C,0.0728*%
%ADD17R,0.0650X0.0650*%
%ADD18C,0.0650*%
%ADD19OC8,0.0630*%
%ADD20C,0.0630*%
%ADD21C,0.0240*%
%ADD22R,0.0594X0.0594*%
%ADD23C,0.0160*%
%ADD24C,0.0500*%
%ADD25R,0.0515X0.0515*%
D10*
X004419Y007351D03*
X005521Y007351D03*
D11*
X002720Y007153D03*
X002720Y006050D03*
X001720Y006050D03*
X001720Y007153D03*
D12*
X001970Y009101D03*
X001970Y010101D03*
X001970Y011101D03*
X001970Y012101D03*
X001970Y013101D03*
X001970Y014101D03*
X001970Y015101D03*
X001970Y016101D03*
X001970Y017101D03*
X001970Y018101D03*
X001970Y019101D03*
X001970Y020101D03*
X007970Y020101D03*
X007970Y019101D03*
X007970Y018101D03*
X007970Y017101D03*
X007970Y016101D03*
X007970Y015101D03*
X007970Y014101D03*
X007970Y013101D03*
X007970Y012101D03*
X007970Y011101D03*
X007970Y010101D03*
X007970Y009101D03*
D13*
X006750Y010101D02*
X006190Y010101D01*
X006190Y011101D02*
X006750Y011101D01*
X006750Y012101D02*
X006190Y012101D01*
X006190Y013101D02*
X006750Y013101D01*
X006750Y014101D02*
X006190Y014101D01*
X006190Y015101D02*
X006750Y015101D01*
X006750Y016101D02*
X006190Y016101D01*
X006190Y017101D02*
X006750Y017101D01*
X006750Y018101D02*
X006190Y018101D01*
X006190Y019101D02*
X006750Y019101D01*
X003750Y019101D02*
X003190Y019101D01*
X003190Y018101D02*
X003750Y018101D01*
X003750Y017101D02*
X003190Y017101D01*
X003190Y016101D02*
X003750Y016101D01*
X003750Y015101D02*
X003190Y015101D01*
X003190Y014101D02*
X003750Y014101D01*
X003750Y013101D02*
X003190Y013101D01*
X003190Y012101D02*
X003750Y012101D01*
X003750Y011101D02*
X003190Y011101D01*
X003190Y010101D02*
X003750Y010101D01*
D14*
X008986Y002684D03*
X009970Y002684D03*
X010954Y002684D03*
D15*
X010031Y020351D03*
D16*
X011409Y020351D03*
D17*
X001720Y003851D03*
X002720Y003851D03*
X007220Y004851D03*
D18*
X007220Y003851D03*
X006220Y003851D03*
X006220Y004851D03*
X005220Y004851D03*
X005220Y003851D03*
X002720Y004851D03*
X001720Y004851D03*
D19*
X010470Y017601D03*
D20*
X011470Y017601D03*
D21*
X011409Y017662D01*
X011409Y020351D01*
X010741Y021075D02*
X006736Y021075D01*
X006617Y021195D02*
X006867Y020945D01*
X006867Y020945D01*
X007063Y020748D01*
X007068Y020738D01*
X007094Y020803D01*
X007269Y020977D01*
X007497Y021071D01*
X008443Y021071D01*
X008671Y020977D01*
X008807Y020841D01*
X008867Y020841D01*
X009139Y020729D01*
X009447Y020421D01*
X009447Y020745D01*
X009462Y020800D01*
X009491Y020851D01*
X009532Y020892D01*
X009582Y020921D01*
X009638Y020936D01*
X010031Y020936D01*
X010031Y020351D01*
X009517Y020351D01*
X009517Y020351D01*
X010031Y020351D01*
X010031Y020351D01*
X010220Y020162D01*
X010220Y018351D01*
X010470Y018101D01*
X010470Y017601D01*
X010470Y017066D01*
X010683Y017066D01*
X010781Y016968D01*
X010781Y016959D01*
X010210Y016388D01*
X010210Y017105D01*
X010248Y017066D01*
X010470Y017066D01*
X010470Y017601D01*
X010470Y017601D01*
X010470Y018136D01*
X010248Y018136D01*
X010210Y018098D01*
X010210Y019499D01*
X010099Y019767D01*
X010424Y019767D01*
X010480Y019782D01*
X010530Y019811D01*
X010557Y019837D01*
X010575Y019794D01*
X010669Y019700D01*
X010669Y018136D01*
X010470Y018136D01*
X010470Y017601D01*
X010470Y017601D01*
X010470Y017497D02*
X010470Y017497D01*
X010470Y017736D02*
X010470Y017736D01*
X010470Y017974D02*
X010470Y017974D01*
X010669Y018213D02*
X010210Y018213D01*
X010210Y018451D02*
X010669Y018451D01*
X010669Y018690D02*
X010210Y018690D01*
X010210Y018928D02*
X010669Y018928D01*
X010669Y019167D02*
X010210Y019167D01*
X010210Y019405D02*
X010669Y019405D01*
X010669Y019644D02*
X010150Y019644D01*
X010031Y020351D02*
X010031Y020351D01*
X010031Y020936D01*
X010424Y020936D01*
X010480Y020921D01*
X010530Y020892D01*
X010557Y020865D01*
X010575Y020909D01*
X010851Y021186D01*
X011213Y021336D01*
X011605Y021336D01*
X011720Y021288D01*
X011720Y021477D01*
X000840Y021477D01*
X000840Y012745D01*
X001000Y012811D01*
X001000Y013575D01*
X001011Y013601D01*
X001000Y013628D01*
X001000Y014575D01*
X001011Y014601D01*
X001000Y014628D01*
X001000Y015575D01*
X001011Y015601D01*
X001000Y015628D01*
X001000Y016575D01*
X001094Y016803D01*
X001269Y016977D01*
X001400Y017031D01*
X001400Y017101D01*
X001970Y017101D01*
X001970Y017101D01*
X001220Y017101D01*
X000970Y017351D01*
X000970Y021351D01*
X001220Y021601D01*
X006720Y021601D01*
X007220Y021101D01*
X007720Y021601D01*
X008720Y021601D01*
X009970Y020351D01*
X010031Y020359D02*
X010031Y020359D01*
X010031Y020598D02*
X010031Y020598D01*
X010031Y020836D02*
X010031Y020836D01*
X009483Y020836D02*
X008879Y020836D01*
X009270Y020598D02*
X009447Y020598D01*
X008720Y020101D02*
X009470Y019351D01*
X009470Y004351D01*
X009970Y003851D01*
X009970Y002684D01*
X010954Y002684D02*
X010970Y002668D01*
X010970Y002700D02*
X010970Y004351D01*
X010470Y004851D01*
X010470Y005351D01*
X010220Y005601D01*
X010220Y015351D01*
X011521Y016653D01*
X011521Y017550D01*
X011470Y017601D01*
X010729Y017020D02*
X010210Y017020D01*
X010210Y016782D02*
X010604Y016782D01*
X010366Y016543D02*
X010210Y016543D01*
X010470Y017259D02*
X010470Y017259D01*
X008970Y018851D02*
X008970Y008351D01*
X008720Y008101D01*
X007470Y008101D01*
X007470Y007101D01*
X007220Y006851D01*
X007220Y004851D01*
X007220Y003851D01*
X007220Y004851D01*
X007220Y004851D01*
X007220Y004396D01*
X007220Y003851D01*
X007220Y003851D01*
X007220Y003903D02*
X007220Y003903D01*
X007220Y004141D02*
X007220Y004141D01*
X007220Y004380D02*
X007220Y004380D01*
X007220Y004618D02*
X007220Y004618D01*
X007220Y004851D02*
X007220Y005396D01*
X007011Y005396D01*
X006755Y005653D01*
X006446Y005781D01*
X006889Y006224D01*
X007097Y006432D01*
X007210Y006704D01*
X007210Y008285D01*
X007269Y008226D01*
X007497Y008131D01*
X008443Y008131D01*
X008671Y008226D01*
X008730Y008285D01*
X008730Y005729D01*
X008339Y005729D01*
X008111Y005634D01*
X007937Y005460D01*
X007843Y005232D01*
X007843Y005020D01*
X007765Y004943D01*
X007765Y005205D01*
X007750Y005261D01*
X007721Y005311D01*
X007680Y005352D01*
X007630Y005381D01*
X007574Y005396D01*
X007220Y005396D01*
X007220Y004851D01*
X007220Y004851D01*
X007220Y004857D02*
X007220Y004857D01*
X007220Y005095D02*
X007220Y005095D01*
X007220Y005334D02*
X007220Y005334D01*
X006835Y005572D02*
X008049Y005572D01*
X007885Y005334D02*
X007699Y005334D01*
X007765Y005095D02*
X007843Y005095D01*
X008220Y004351D02*
X008720Y004851D01*
X008220Y004351D02*
X008220Y003101D01*
X007970Y002851D01*
X006470Y002851D01*
X006220Y003101D01*
X006220Y003851D01*
X006220Y004851D01*
X006476Y005811D02*
X008730Y005811D01*
X008730Y006049D02*
X006715Y006049D01*
X006953Y006288D02*
X008730Y006288D01*
X008730Y006526D02*
X007136Y006526D01*
X007210Y006765D02*
X008730Y006765D01*
X008730Y007003D02*
X007210Y007003D01*
X007210Y007242D02*
X008730Y007242D01*
X008730Y007480D02*
X007210Y007480D01*
X007210Y007719D02*
X008730Y007719D01*
X008730Y007957D02*
X007210Y007957D01*
X007210Y008196D02*
X007341Y008196D01*
X006470Y008851D02*
X006720Y009101D01*
X007970Y009101D01*
X008599Y008196D02*
X008730Y008196D01*
X006470Y008851D02*
X006470Y006851D01*
X005220Y005601D01*
X005220Y004851D01*
X005220Y003851D02*
X004720Y003851D01*
X004470Y004101D01*
X004470Y005851D01*
X005470Y006851D01*
X005470Y007300D01*
X005521Y007351D01*
X005521Y008050D01*
X005220Y008351D01*
X005220Y008851D01*
X004419Y009550D02*
X004720Y009851D01*
X006220Y009851D01*
X006470Y010101D01*
X004419Y009550D02*
X004419Y007351D01*
X004419Y006550D01*
X003970Y006101D01*
X003970Y004351D01*
X003470Y003851D01*
X002720Y003851D01*
X001720Y003851D01*
X001720Y004851D02*
X001720Y006050D01*
X001271Y006050D01*
X000970Y006351D01*
X000970Y011851D01*
X001220Y012101D01*
X001970Y012101D01*
X001000Y012966D02*
X000840Y012966D01*
X000840Y013204D02*
X001000Y013204D01*
X001000Y013443D02*
X000840Y013443D01*
X000840Y013681D02*
X001000Y013681D01*
X001000Y013920D02*
X000840Y013920D01*
X000840Y014158D02*
X001000Y014158D01*
X001000Y014397D02*
X000840Y014397D01*
X000840Y014635D02*
X001000Y014635D01*
X001000Y014874D02*
X000840Y014874D01*
X000840Y015112D02*
X001000Y015112D01*
X001000Y015351D02*
X000840Y015351D01*
X000840Y015589D02*
X001006Y015589D01*
X001000Y015828D02*
X000840Y015828D01*
X000840Y016066D02*
X001000Y016066D01*
X001000Y016305D02*
X000840Y016305D01*
X000840Y016543D02*
X001000Y016543D01*
X001086Y016782D02*
X000840Y016782D01*
X000840Y017020D02*
X001374Y017020D01*
X001400Y017101D02*
X001970Y017101D01*
X001970Y018101D01*
X001970Y017101D01*
X001970Y017671D01*
X001970Y018101D01*
X001970Y018101D01*
X001400Y018101D01*
X001400Y017722D01*
X001415Y017666D01*
X001444Y017616D01*
X001459Y017601D01*
X001444Y017586D01*
X001415Y017536D01*
X001400Y017480D01*
X001400Y017101D01*
X001400Y017259D02*
X000840Y017259D01*
X000840Y017497D02*
X001405Y017497D01*
X001400Y017736D02*
X000840Y017736D01*
X000840Y017974D02*
X001400Y017974D01*
X001400Y018101D02*
X001970Y018101D01*
X001970Y018101D01*
X002290Y018101D01*
X002290Y018101D01*
X001970Y018101D01*
X001970Y018101D01*
X001970Y017974D02*
X001970Y017974D01*
X001970Y017736D02*
X001970Y017736D01*
X001970Y017497D02*
X001970Y017497D01*
X001970Y017259D02*
X001970Y017259D01*
X001970Y017101D02*
X001970Y017101D01*
X001400Y018101D02*
X001400Y018171D01*
X001269Y018226D01*
X001094Y018400D01*
X001000Y018628D01*
X001000Y019575D01*
X001011Y019601D01*
X001000Y019628D01*
X001000Y020575D01*
X001094Y020803D01*
X001269Y020977D01*
X001497Y021071D01*
X002443Y021071D01*
X002448Y021069D01*
X002573Y021195D01*
X002831Y021301D01*
X006359Y021301D01*
X006617Y021195D01*
X006975Y020836D02*
X007128Y020836D01*
X007970Y020101D02*
X008720Y020101D01*
X008720Y019101D02*
X007970Y019101D01*
X008720Y019101D02*
X008970Y018851D01*
X011160Y021313D02*
X000840Y021313D01*
X000840Y021075D02*
X002454Y021075D01*
X001128Y020836D02*
X000840Y020836D01*
X000840Y020598D02*
X001010Y020598D01*
X001000Y020359D02*
X000840Y020359D01*
X000840Y020121D02*
X001000Y020121D01*
X001000Y019882D02*
X000840Y019882D01*
X000840Y019644D02*
X001000Y019644D01*
X001000Y019405D02*
X000840Y019405D01*
X000840Y019167D02*
X001000Y019167D01*
X001000Y018928D02*
X000840Y018928D01*
X000840Y018690D02*
X001000Y018690D01*
X001073Y018451D02*
X000840Y018451D01*
X000840Y018213D02*
X001300Y018213D01*
X003210Y019101D02*
X003210Y019101D01*
X003470Y019101D01*
X003470Y019101D01*
X003470Y019101D01*
X004250Y019101D01*
X004250Y019062D01*
X004238Y018984D01*
X004213Y018909D01*
X004202Y018888D01*
X004260Y018864D01*
X004323Y018801D01*
X004609Y018801D01*
X004770Y018735D01*
X004770Y019401D01*
X004150Y019401D01*
X004178Y019363D01*
X004213Y019293D01*
X004238Y019218D01*
X004250Y019141D01*
X004250Y019101D01*
X003470Y019101D01*
X003210Y019101D01*
X004220Y018928D02*
X004770Y018928D01*
X004770Y019167D02*
X004246Y019167D01*
X003220Y009101D02*
X001970Y009101D01*
X001970Y008101D02*
X002470Y008101D01*
X002443Y008131D02*
X001710Y008131D01*
X001710Y007190D01*
X001757Y007190D01*
X001757Y007688D01*
X002103Y007688D01*
X002159Y007673D01*
X002209Y007644D01*
X002220Y007633D01*
X002231Y007644D01*
X002281Y007673D01*
X002337Y007688D01*
X002683Y007688D01*
X002683Y007190D01*
X002730Y007190D01*
X002730Y008285D01*
X002671Y008226D01*
X002443Y008131D01*
X002599Y008196D02*
X002730Y008196D01*
X002730Y007957D02*
X001710Y007957D01*
X001720Y007851D02*
X001970Y008101D01*
X001720Y007851D02*
X001720Y007153D01*
X002720Y007153D01*
X002683Y007190D02*
X002683Y007115D01*
X002146Y007115D01*
X001757Y007115D01*
X001757Y007190D01*
X002683Y007190D01*
X002683Y007242D02*
X002730Y007242D01*
X002730Y007480D02*
X002683Y007480D01*
X002730Y007719D02*
X001710Y007719D01*
X001710Y007480D02*
X001757Y007480D01*
X001757Y007242D02*
X001710Y007242D01*
X002720Y006050D02*
X002720Y004851D01*
X002720Y006050D02*
X003169Y006050D01*
X003470Y006351D01*
X003470Y008851D01*
X003220Y009101D01*
X011658Y021313D02*
X011720Y021313D01*
D22*
X005220Y012601D03*
X005220Y008851D03*
X007470Y008101D03*
X002470Y008101D03*
D23*
X002970Y010101D02*
X003470Y010101D01*
X004470Y010101D01*
X005470Y011101D01*
X006470Y011101D01*
X006470Y010101D02*
X006970Y010101D01*
X007220Y010351D01*
X007220Y016851D01*
X007470Y017101D01*
X007970Y017101D01*
X007970Y019101D02*
X007470Y019101D01*
X007220Y019351D01*
X007220Y021101D01*
X006470Y020351D02*
X006470Y019101D01*
X006470Y018101D02*
X005720Y018101D01*
X005470Y018351D01*
X005470Y019851D01*
X005220Y020101D01*
X003220Y020101D01*
X002220Y019101D01*
X001970Y019101D01*
X001970Y020101D02*
X002470Y020101D01*
X002970Y020601D01*
X006220Y020601D01*
X006470Y020351D01*
X004470Y018101D02*
X005220Y017351D01*
X005220Y013351D01*
X005470Y013101D01*
X006470Y013101D01*
X005470Y013101D02*
X005220Y012851D01*
X005220Y012601D01*
X002720Y010351D02*
X002970Y010101D01*
X002720Y010351D02*
X002720Y015851D01*
X002345Y016101D01*
X001970Y016101D01*
X001970Y018101D02*
X002220Y018101D01*
X003220Y019101D01*
X003470Y019101D01*
X003470Y018101D02*
X004470Y018101D01*
D24*
X010970Y002700D02*
X010954Y002684D01*
D25*
X010470Y004851D03*
X008720Y004851D03*
M02*
