G75*
%MOIN*%
%OFA0B0*%
%FSLAX25Y25*%
%IPPOS*%
%LPD*%
%AMOC8*
5,1,8,0,0,1.08239X$1,22.5*
%
%ADD10C,0.00000*%
%ADD11C,0.01300*%
%ADD12C,0.00100*%
%ADD13C,0.00600*%
%ADD14C,0.00400*%
%ADD15C,0.00800*%
%ADD16C,0.00200*%
D10*
X0002200Y0006014D02*
X0079700Y0006014D01*
X0079700Y0018514D01*
X0124700Y0018514D01*
X0124700Y0221014D01*
X0124651Y0220974D02*
X0002200Y0220974D01*
X0002200Y0006014D01*
X0083952Y0016014D02*
X0083954Y0016098D01*
X0083960Y0016181D01*
X0083970Y0016264D01*
X0083984Y0016347D01*
X0084001Y0016429D01*
X0084023Y0016510D01*
X0084048Y0016589D01*
X0084077Y0016668D01*
X0084110Y0016745D01*
X0084146Y0016820D01*
X0084186Y0016894D01*
X0084229Y0016966D01*
X0084276Y0017035D01*
X0084326Y0017102D01*
X0084379Y0017167D01*
X0084435Y0017229D01*
X0084493Y0017289D01*
X0084555Y0017346D01*
X0084619Y0017399D01*
X0084686Y0017450D01*
X0084755Y0017497D01*
X0084826Y0017542D01*
X0084899Y0017582D01*
X0084974Y0017619D01*
X0085051Y0017653D01*
X0085129Y0017683D01*
X0085208Y0017709D01*
X0085289Y0017732D01*
X0085371Y0017750D01*
X0085453Y0017765D01*
X0085536Y0017776D01*
X0085619Y0017783D01*
X0085703Y0017786D01*
X0085787Y0017785D01*
X0085870Y0017780D01*
X0085954Y0017771D01*
X0086036Y0017758D01*
X0086118Y0017742D01*
X0086199Y0017721D01*
X0086280Y0017697D01*
X0086358Y0017669D01*
X0086436Y0017637D01*
X0086512Y0017601D01*
X0086586Y0017562D01*
X0086658Y0017520D01*
X0086728Y0017474D01*
X0086796Y0017425D01*
X0086861Y0017373D01*
X0086924Y0017318D01*
X0086984Y0017260D01*
X0087042Y0017199D01*
X0087096Y0017135D01*
X0087148Y0017069D01*
X0087196Y0017001D01*
X0087241Y0016930D01*
X0087282Y0016857D01*
X0087321Y0016783D01*
X0087355Y0016707D01*
X0087386Y0016629D01*
X0087413Y0016550D01*
X0087437Y0016469D01*
X0087456Y0016388D01*
X0087472Y0016306D01*
X0087484Y0016223D01*
X0087492Y0016139D01*
X0087496Y0016056D01*
X0087496Y0015972D01*
X0087492Y0015889D01*
X0087484Y0015805D01*
X0087472Y0015722D01*
X0087456Y0015640D01*
X0087437Y0015559D01*
X0087413Y0015478D01*
X0087386Y0015399D01*
X0087355Y0015321D01*
X0087321Y0015245D01*
X0087282Y0015171D01*
X0087241Y0015098D01*
X0087196Y0015027D01*
X0087148Y0014959D01*
X0087096Y0014893D01*
X0087042Y0014829D01*
X0086984Y0014768D01*
X0086924Y0014710D01*
X0086861Y0014655D01*
X0086796Y0014603D01*
X0086728Y0014554D01*
X0086658Y0014508D01*
X0086586Y0014466D01*
X0086512Y0014427D01*
X0086436Y0014391D01*
X0086358Y0014359D01*
X0086280Y0014331D01*
X0086199Y0014307D01*
X0086118Y0014286D01*
X0086036Y0014270D01*
X0085954Y0014257D01*
X0085870Y0014248D01*
X0085787Y0014243D01*
X0085703Y0014242D01*
X0085619Y0014245D01*
X0085536Y0014252D01*
X0085453Y0014263D01*
X0085371Y0014278D01*
X0085289Y0014296D01*
X0085208Y0014319D01*
X0085129Y0014345D01*
X0085051Y0014375D01*
X0084974Y0014409D01*
X0084899Y0014446D01*
X0084826Y0014486D01*
X0084755Y0014531D01*
X0084686Y0014578D01*
X0084619Y0014629D01*
X0084555Y0014682D01*
X0084493Y0014739D01*
X0084435Y0014799D01*
X0084379Y0014861D01*
X0084326Y0014926D01*
X0084276Y0014993D01*
X0084229Y0015062D01*
X0084186Y0015134D01*
X0084146Y0015208D01*
X0084110Y0015283D01*
X0084077Y0015360D01*
X0084048Y0015439D01*
X0084023Y0015518D01*
X0084001Y0015599D01*
X0083984Y0015681D01*
X0083970Y0015764D01*
X0083960Y0015847D01*
X0083954Y0015930D01*
X0083952Y0016014D01*
X0111904Y0016014D02*
X0111906Y0016098D01*
X0111912Y0016181D01*
X0111922Y0016264D01*
X0111936Y0016347D01*
X0111953Y0016429D01*
X0111975Y0016510D01*
X0112000Y0016589D01*
X0112029Y0016668D01*
X0112062Y0016745D01*
X0112098Y0016820D01*
X0112138Y0016894D01*
X0112181Y0016966D01*
X0112228Y0017035D01*
X0112278Y0017102D01*
X0112331Y0017167D01*
X0112387Y0017229D01*
X0112445Y0017289D01*
X0112507Y0017346D01*
X0112571Y0017399D01*
X0112638Y0017450D01*
X0112707Y0017497D01*
X0112778Y0017542D01*
X0112851Y0017582D01*
X0112926Y0017619D01*
X0113003Y0017653D01*
X0113081Y0017683D01*
X0113160Y0017709D01*
X0113241Y0017732D01*
X0113323Y0017750D01*
X0113405Y0017765D01*
X0113488Y0017776D01*
X0113571Y0017783D01*
X0113655Y0017786D01*
X0113739Y0017785D01*
X0113822Y0017780D01*
X0113906Y0017771D01*
X0113988Y0017758D01*
X0114070Y0017742D01*
X0114151Y0017721D01*
X0114232Y0017697D01*
X0114310Y0017669D01*
X0114388Y0017637D01*
X0114464Y0017601D01*
X0114538Y0017562D01*
X0114610Y0017520D01*
X0114680Y0017474D01*
X0114748Y0017425D01*
X0114813Y0017373D01*
X0114876Y0017318D01*
X0114936Y0017260D01*
X0114994Y0017199D01*
X0115048Y0017135D01*
X0115100Y0017069D01*
X0115148Y0017001D01*
X0115193Y0016930D01*
X0115234Y0016857D01*
X0115273Y0016783D01*
X0115307Y0016707D01*
X0115338Y0016629D01*
X0115365Y0016550D01*
X0115389Y0016469D01*
X0115408Y0016388D01*
X0115424Y0016306D01*
X0115436Y0016223D01*
X0115444Y0016139D01*
X0115448Y0016056D01*
X0115448Y0015972D01*
X0115444Y0015889D01*
X0115436Y0015805D01*
X0115424Y0015722D01*
X0115408Y0015640D01*
X0115389Y0015559D01*
X0115365Y0015478D01*
X0115338Y0015399D01*
X0115307Y0015321D01*
X0115273Y0015245D01*
X0115234Y0015171D01*
X0115193Y0015098D01*
X0115148Y0015027D01*
X0115100Y0014959D01*
X0115048Y0014893D01*
X0114994Y0014829D01*
X0114936Y0014768D01*
X0114876Y0014710D01*
X0114813Y0014655D01*
X0114748Y0014603D01*
X0114680Y0014554D01*
X0114610Y0014508D01*
X0114538Y0014466D01*
X0114464Y0014427D01*
X0114388Y0014391D01*
X0114310Y0014359D01*
X0114232Y0014331D01*
X0114151Y0014307D01*
X0114070Y0014286D01*
X0113988Y0014270D01*
X0113906Y0014257D01*
X0113822Y0014248D01*
X0113739Y0014243D01*
X0113655Y0014242D01*
X0113571Y0014245D01*
X0113488Y0014252D01*
X0113405Y0014263D01*
X0113323Y0014278D01*
X0113241Y0014296D01*
X0113160Y0014319D01*
X0113081Y0014345D01*
X0113003Y0014375D01*
X0112926Y0014409D01*
X0112851Y0014446D01*
X0112778Y0014486D01*
X0112707Y0014531D01*
X0112638Y0014578D01*
X0112571Y0014629D01*
X0112507Y0014682D01*
X0112445Y0014739D01*
X0112387Y0014799D01*
X0112331Y0014861D01*
X0112278Y0014926D01*
X0112228Y0014993D01*
X0112181Y0015062D01*
X0112138Y0015134D01*
X0112098Y0015208D01*
X0112062Y0015283D01*
X0112029Y0015360D01*
X0112000Y0015439D01*
X0111975Y0015518D01*
X0111953Y0015599D01*
X0111936Y0015681D01*
X0111922Y0015764D01*
X0111912Y0015847D01*
X0111906Y0015930D01*
X0111904Y0016014D01*
X0110763Y0056014D02*
X0110765Y0056139D01*
X0110771Y0056264D01*
X0110781Y0056388D01*
X0110795Y0056512D01*
X0110812Y0056636D01*
X0110834Y0056759D01*
X0110860Y0056881D01*
X0110889Y0057003D01*
X0110922Y0057123D01*
X0110960Y0057242D01*
X0111000Y0057361D01*
X0111045Y0057477D01*
X0111093Y0057592D01*
X0111145Y0057706D01*
X0111201Y0057818D01*
X0111260Y0057928D01*
X0111322Y0058036D01*
X0111388Y0058143D01*
X0111457Y0058247D01*
X0111530Y0058348D01*
X0111605Y0058448D01*
X0111684Y0058545D01*
X0111766Y0058639D01*
X0111851Y0058731D01*
X0111938Y0058820D01*
X0112029Y0058906D01*
X0112122Y0058989D01*
X0112218Y0059070D01*
X0112316Y0059147D01*
X0112416Y0059221D01*
X0112519Y0059292D01*
X0112624Y0059359D01*
X0112732Y0059424D01*
X0112841Y0059484D01*
X0112952Y0059542D01*
X0113065Y0059595D01*
X0113179Y0059645D01*
X0113295Y0059692D01*
X0113412Y0059734D01*
X0113531Y0059773D01*
X0113651Y0059809D01*
X0113772Y0059840D01*
X0113894Y0059868D01*
X0114016Y0059891D01*
X0114140Y0059911D01*
X0114264Y0059927D01*
X0114388Y0059939D01*
X0114513Y0059947D01*
X0114638Y0059951D01*
X0114762Y0059951D01*
X0114887Y0059947D01*
X0115012Y0059939D01*
X0115136Y0059927D01*
X0115260Y0059911D01*
X0115384Y0059891D01*
X0115506Y0059868D01*
X0115628Y0059840D01*
X0115749Y0059809D01*
X0115869Y0059773D01*
X0115988Y0059734D01*
X0116105Y0059692D01*
X0116221Y0059645D01*
X0116335Y0059595D01*
X0116448Y0059542D01*
X0116559Y0059484D01*
X0116669Y0059424D01*
X0116776Y0059359D01*
X0116881Y0059292D01*
X0116984Y0059221D01*
X0117084Y0059147D01*
X0117182Y0059070D01*
X0117278Y0058989D01*
X0117371Y0058906D01*
X0117462Y0058820D01*
X0117549Y0058731D01*
X0117634Y0058639D01*
X0117716Y0058545D01*
X0117795Y0058448D01*
X0117870Y0058348D01*
X0117943Y0058247D01*
X0118012Y0058143D01*
X0118078Y0058036D01*
X0118140Y0057928D01*
X0118199Y0057818D01*
X0118255Y0057706D01*
X0118307Y0057592D01*
X0118355Y0057477D01*
X0118400Y0057361D01*
X0118440Y0057242D01*
X0118478Y0057123D01*
X0118511Y0057003D01*
X0118540Y0056881D01*
X0118566Y0056759D01*
X0118588Y0056636D01*
X0118605Y0056512D01*
X0118619Y0056388D01*
X0118629Y0056264D01*
X0118635Y0056139D01*
X0118637Y0056014D01*
X0118635Y0055889D01*
X0118629Y0055764D01*
X0118619Y0055640D01*
X0118605Y0055516D01*
X0118588Y0055392D01*
X0118566Y0055269D01*
X0118540Y0055147D01*
X0118511Y0055025D01*
X0118478Y0054905D01*
X0118440Y0054786D01*
X0118400Y0054667D01*
X0118355Y0054551D01*
X0118307Y0054436D01*
X0118255Y0054322D01*
X0118199Y0054210D01*
X0118140Y0054100D01*
X0118078Y0053992D01*
X0118012Y0053885D01*
X0117943Y0053781D01*
X0117870Y0053680D01*
X0117795Y0053580D01*
X0117716Y0053483D01*
X0117634Y0053389D01*
X0117549Y0053297D01*
X0117462Y0053208D01*
X0117371Y0053122D01*
X0117278Y0053039D01*
X0117182Y0052958D01*
X0117084Y0052881D01*
X0116984Y0052807D01*
X0116881Y0052736D01*
X0116776Y0052669D01*
X0116668Y0052604D01*
X0116559Y0052544D01*
X0116448Y0052486D01*
X0116335Y0052433D01*
X0116221Y0052383D01*
X0116105Y0052336D01*
X0115988Y0052294D01*
X0115869Y0052255D01*
X0115749Y0052219D01*
X0115628Y0052188D01*
X0115506Y0052160D01*
X0115384Y0052137D01*
X0115260Y0052117D01*
X0115136Y0052101D01*
X0115012Y0052089D01*
X0114887Y0052081D01*
X0114762Y0052077D01*
X0114638Y0052077D01*
X0114513Y0052081D01*
X0114388Y0052089D01*
X0114264Y0052101D01*
X0114140Y0052117D01*
X0114016Y0052137D01*
X0113894Y0052160D01*
X0113772Y0052188D01*
X0113651Y0052219D01*
X0113531Y0052255D01*
X0113412Y0052294D01*
X0113295Y0052336D01*
X0113179Y0052383D01*
X0113065Y0052433D01*
X0112952Y0052486D01*
X0112841Y0052544D01*
X0112731Y0052604D01*
X0112624Y0052669D01*
X0112519Y0052736D01*
X0112416Y0052807D01*
X0112316Y0052881D01*
X0112218Y0052958D01*
X0112122Y0053039D01*
X0112029Y0053122D01*
X0111938Y0053208D01*
X0111851Y0053297D01*
X0111766Y0053389D01*
X0111684Y0053483D01*
X0111605Y0053580D01*
X0111530Y0053680D01*
X0111457Y0053781D01*
X0111388Y0053885D01*
X0111322Y0053992D01*
X0111260Y0054100D01*
X0111201Y0054210D01*
X0111145Y0054322D01*
X0111093Y0054436D01*
X0111045Y0054551D01*
X0111000Y0054667D01*
X0110960Y0054786D01*
X0110922Y0054905D01*
X0110889Y0055025D01*
X0110860Y0055147D01*
X0110834Y0055269D01*
X0110812Y0055392D01*
X0110795Y0055516D01*
X0110781Y0055640D01*
X0110771Y0055764D01*
X0110765Y0055889D01*
X0110763Y0056014D01*
X0110763Y0148514D02*
X0110765Y0148639D01*
X0110771Y0148764D01*
X0110781Y0148888D01*
X0110795Y0149012D01*
X0110812Y0149136D01*
X0110834Y0149259D01*
X0110860Y0149381D01*
X0110889Y0149503D01*
X0110922Y0149623D01*
X0110960Y0149742D01*
X0111000Y0149861D01*
X0111045Y0149977D01*
X0111093Y0150092D01*
X0111145Y0150206D01*
X0111201Y0150318D01*
X0111260Y0150428D01*
X0111322Y0150536D01*
X0111388Y0150643D01*
X0111457Y0150747D01*
X0111530Y0150848D01*
X0111605Y0150948D01*
X0111684Y0151045D01*
X0111766Y0151139D01*
X0111851Y0151231D01*
X0111938Y0151320D01*
X0112029Y0151406D01*
X0112122Y0151489D01*
X0112218Y0151570D01*
X0112316Y0151647D01*
X0112416Y0151721D01*
X0112519Y0151792D01*
X0112624Y0151859D01*
X0112732Y0151924D01*
X0112841Y0151984D01*
X0112952Y0152042D01*
X0113065Y0152095D01*
X0113179Y0152145D01*
X0113295Y0152192D01*
X0113412Y0152234D01*
X0113531Y0152273D01*
X0113651Y0152309D01*
X0113772Y0152340D01*
X0113894Y0152368D01*
X0114016Y0152391D01*
X0114140Y0152411D01*
X0114264Y0152427D01*
X0114388Y0152439D01*
X0114513Y0152447D01*
X0114638Y0152451D01*
X0114762Y0152451D01*
X0114887Y0152447D01*
X0115012Y0152439D01*
X0115136Y0152427D01*
X0115260Y0152411D01*
X0115384Y0152391D01*
X0115506Y0152368D01*
X0115628Y0152340D01*
X0115749Y0152309D01*
X0115869Y0152273D01*
X0115988Y0152234D01*
X0116105Y0152192D01*
X0116221Y0152145D01*
X0116335Y0152095D01*
X0116448Y0152042D01*
X0116559Y0151984D01*
X0116669Y0151924D01*
X0116776Y0151859D01*
X0116881Y0151792D01*
X0116984Y0151721D01*
X0117084Y0151647D01*
X0117182Y0151570D01*
X0117278Y0151489D01*
X0117371Y0151406D01*
X0117462Y0151320D01*
X0117549Y0151231D01*
X0117634Y0151139D01*
X0117716Y0151045D01*
X0117795Y0150948D01*
X0117870Y0150848D01*
X0117943Y0150747D01*
X0118012Y0150643D01*
X0118078Y0150536D01*
X0118140Y0150428D01*
X0118199Y0150318D01*
X0118255Y0150206D01*
X0118307Y0150092D01*
X0118355Y0149977D01*
X0118400Y0149861D01*
X0118440Y0149742D01*
X0118478Y0149623D01*
X0118511Y0149503D01*
X0118540Y0149381D01*
X0118566Y0149259D01*
X0118588Y0149136D01*
X0118605Y0149012D01*
X0118619Y0148888D01*
X0118629Y0148764D01*
X0118635Y0148639D01*
X0118637Y0148514D01*
X0118635Y0148389D01*
X0118629Y0148264D01*
X0118619Y0148140D01*
X0118605Y0148016D01*
X0118588Y0147892D01*
X0118566Y0147769D01*
X0118540Y0147647D01*
X0118511Y0147525D01*
X0118478Y0147405D01*
X0118440Y0147286D01*
X0118400Y0147167D01*
X0118355Y0147051D01*
X0118307Y0146936D01*
X0118255Y0146822D01*
X0118199Y0146710D01*
X0118140Y0146600D01*
X0118078Y0146492D01*
X0118012Y0146385D01*
X0117943Y0146281D01*
X0117870Y0146180D01*
X0117795Y0146080D01*
X0117716Y0145983D01*
X0117634Y0145889D01*
X0117549Y0145797D01*
X0117462Y0145708D01*
X0117371Y0145622D01*
X0117278Y0145539D01*
X0117182Y0145458D01*
X0117084Y0145381D01*
X0116984Y0145307D01*
X0116881Y0145236D01*
X0116776Y0145169D01*
X0116668Y0145104D01*
X0116559Y0145044D01*
X0116448Y0144986D01*
X0116335Y0144933D01*
X0116221Y0144883D01*
X0116105Y0144836D01*
X0115988Y0144794D01*
X0115869Y0144755D01*
X0115749Y0144719D01*
X0115628Y0144688D01*
X0115506Y0144660D01*
X0115384Y0144637D01*
X0115260Y0144617D01*
X0115136Y0144601D01*
X0115012Y0144589D01*
X0114887Y0144581D01*
X0114762Y0144577D01*
X0114638Y0144577D01*
X0114513Y0144581D01*
X0114388Y0144589D01*
X0114264Y0144601D01*
X0114140Y0144617D01*
X0114016Y0144637D01*
X0113894Y0144660D01*
X0113772Y0144688D01*
X0113651Y0144719D01*
X0113531Y0144755D01*
X0113412Y0144794D01*
X0113295Y0144836D01*
X0113179Y0144883D01*
X0113065Y0144933D01*
X0112952Y0144986D01*
X0112841Y0145044D01*
X0112731Y0145104D01*
X0112624Y0145169D01*
X0112519Y0145236D01*
X0112416Y0145307D01*
X0112316Y0145381D01*
X0112218Y0145458D01*
X0112122Y0145539D01*
X0112029Y0145622D01*
X0111938Y0145708D01*
X0111851Y0145797D01*
X0111766Y0145889D01*
X0111684Y0145983D01*
X0111605Y0146080D01*
X0111530Y0146180D01*
X0111457Y0146281D01*
X0111388Y0146385D01*
X0111322Y0146492D01*
X0111260Y0146600D01*
X0111201Y0146710D01*
X0111145Y0146822D01*
X0111093Y0146936D01*
X0111045Y0147051D01*
X0111000Y0147167D01*
X0110960Y0147286D01*
X0110922Y0147405D01*
X0110889Y0147525D01*
X0110860Y0147647D01*
X0110834Y0147769D01*
X0110812Y0147892D01*
X0110795Y0148016D01*
X0110781Y0148140D01*
X0110771Y0148264D01*
X0110765Y0148389D01*
X0110763Y0148514D01*
D11*
X0111801Y0134021D02*
X0110850Y0133071D01*
X0110850Y0130218D01*
X0112752Y0131169D02*
X0112752Y0133071D01*
X0111801Y0134021D01*
X0114653Y0134021D02*
X0114653Y0131169D01*
X0113702Y0130218D01*
X0112752Y0131169D01*
X0114653Y0127576D02*
X0114653Y0124723D01*
X0113702Y0123773D01*
X0111801Y0123773D01*
X0110850Y0124723D01*
X0110850Y0127576D01*
X0110850Y0121377D02*
X0110850Y0119476D01*
X0110850Y0120426D02*
X0114653Y0120426D01*
X0114653Y0119476D01*
X0113702Y0116833D02*
X0110850Y0116833D01*
X0113702Y0116833D02*
X0114653Y0115883D01*
X0114653Y0113030D01*
X0110850Y0113030D01*
X0111801Y0110388D02*
X0113702Y0110388D01*
X0114653Y0109437D01*
X0114653Y0107535D01*
X0113702Y0106585D01*
X0111801Y0106585D01*
X0110850Y0107535D01*
X0110850Y0109437D01*
X0111801Y0110388D01*
X0110850Y0104189D02*
X0110850Y0102288D01*
X0110850Y0103238D02*
X0114653Y0103238D01*
X0114653Y0102288D01*
X0114653Y0099645D02*
X0113702Y0098695D01*
X0113702Y0095842D01*
X0113702Y0093200D02*
X0110850Y0093200D01*
X0110850Y0095842D02*
X0110850Y0098695D01*
X0111801Y0099645D01*
X0112752Y0099645D01*
X0113702Y0098695D01*
X0114653Y0099645D02*
X0115604Y0099645D01*
X0116555Y0098695D01*
X0116555Y0095842D01*
X0110850Y0095842D01*
X0113702Y0093200D02*
X0114653Y0092249D01*
X0114653Y0089397D01*
X0110850Y0089397D01*
X0112752Y0086754D02*
X0112752Y0082951D01*
X0113702Y0082951D02*
X0111801Y0082951D01*
X0110850Y0083902D01*
X0110850Y0085804D01*
X0112752Y0086754D02*
X0113702Y0086754D01*
X0114653Y0085804D01*
X0114653Y0083902D01*
X0113702Y0082951D01*
X0113702Y0080309D02*
X0111801Y0080309D01*
X0110850Y0079358D01*
X0110850Y0076506D01*
X0108948Y0076506D02*
X0114653Y0076506D01*
X0114653Y0079358D01*
X0113702Y0080309D01*
X0111801Y0073863D02*
X0110850Y0072913D01*
X0110850Y0071011D01*
X0111801Y0070060D01*
X0115604Y0070060D01*
X0116555Y0071011D01*
X0116555Y0072913D01*
X0115604Y0073863D01*
X0111801Y0073863D01*
X0116555Y0103238D02*
X0117506Y0103238D01*
X0117506Y0120426D02*
X0116555Y0120426D01*
D12*
X0054650Y0079565D02*
X0054650Y0078064D01*
X0054650Y0078564D02*
X0053899Y0078564D01*
X0053649Y0078814D01*
X0053649Y0079315D01*
X0053899Y0079565D01*
X0054650Y0079565D01*
X0054150Y0078564D02*
X0053649Y0078064D01*
X0053177Y0078064D02*
X0052176Y0078064D01*
X0052676Y0078064D02*
X0052676Y0079565D01*
X0053177Y0079065D01*
X0022651Y0070341D02*
X0022401Y0070591D01*
X0022151Y0070591D01*
X0021901Y0070341D01*
X0021650Y0070591D01*
X0021400Y0070591D01*
X0021150Y0070341D01*
X0021150Y0069841D01*
X0021400Y0069591D01*
X0021150Y0069118D02*
X0021650Y0068618D01*
X0021650Y0068868D02*
X0021650Y0068117D01*
X0021150Y0068117D02*
X0022651Y0068117D01*
X0022651Y0068868D01*
X0022401Y0069118D01*
X0021901Y0069118D01*
X0021650Y0068868D01*
X0022401Y0069591D02*
X0022651Y0069841D01*
X0022651Y0070341D01*
X0021901Y0070341D02*
X0021901Y0070091D01*
X0012651Y0070341D02*
X0012651Y0069841D01*
X0012401Y0069591D01*
X0012401Y0069118D02*
X0011901Y0069118D01*
X0011650Y0068868D01*
X0011650Y0068117D01*
X0011150Y0068117D02*
X0012651Y0068117D01*
X0012651Y0068868D01*
X0012401Y0069118D01*
X0011650Y0068618D02*
X0011150Y0069118D01*
X0011150Y0069591D02*
X0012151Y0070591D01*
X0012401Y0070591D01*
X0012651Y0070341D01*
X0011150Y0070591D02*
X0011150Y0069591D01*
D13*
X0038200Y0096014D02*
X0045700Y0096014D01*
X0045702Y0096140D01*
X0045708Y0096265D01*
X0045718Y0096390D01*
X0045732Y0096515D01*
X0045749Y0096640D01*
X0045771Y0096764D01*
X0045796Y0096887D01*
X0045826Y0097009D01*
X0045859Y0097130D01*
X0045896Y0097250D01*
X0045936Y0097369D01*
X0045981Y0097486D01*
X0046029Y0097603D01*
X0046081Y0097717D01*
X0046136Y0097830D01*
X0046195Y0097941D01*
X0046257Y0098050D01*
X0046323Y0098157D01*
X0046392Y0098262D01*
X0046464Y0098365D01*
X0046539Y0098466D01*
X0046618Y0098564D01*
X0046700Y0098659D01*
X0046784Y0098752D01*
X0046872Y0098842D01*
X0046962Y0098930D01*
X0047055Y0099014D01*
X0047150Y0099096D01*
X0047248Y0099175D01*
X0047349Y0099250D01*
X0047452Y0099322D01*
X0047557Y0099391D01*
X0047664Y0099457D01*
X0047773Y0099519D01*
X0047884Y0099578D01*
X0047997Y0099633D01*
X0048111Y0099685D01*
X0048228Y0099733D01*
X0048345Y0099778D01*
X0048464Y0099818D01*
X0048584Y0099855D01*
X0048705Y0099888D01*
X0048827Y0099918D01*
X0048950Y0099943D01*
X0049074Y0099965D01*
X0049199Y0099982D01*
X0049324Y0099996D01*
X0049449Y0100006D01*
X0049574Y0100012D01*
X0049700Y0100014D01*
X0049826Y0100012D01*
X0049951Y0100006D01*
X0050076Y0099996D01*
X0050201Y0099982D01*
X0050326Y0099965D01*
X0050450Y0099943D01*
X0050573Y0099918D01*
X0050695Y0099888D01*
X0050816Y0099855D01*
X0050936Y0099818D01*
X0051055Y0099778D01*
X0051172Y0099733D01*
X0051289Y0099685D01*
X0051403Y0099633D01*
X0051516Y0099578D01*
X0051627Y0099519D01*
X0051736Y0099457D01*
X0051843Y0099391D01*
X0051948Y0099322D01*
X0052051Y0099250D01*
X0052152Y0099175D01*
X0052250Y0099096D01*
X0052345Y0099014D01*
X0052438Y0098930D01*
X0052528Y0098842D01*
X0052616Y0098752D01*
X0052700Y0098659D01*
X0052782Y0098564D01*
X0052861Y0098466D01*
X0052936Y0098365D01*
X0053008Y0098262D01*
X0053077Y0098157D01*
X0053143Y0098050D01*
X0053205Y0097941D01*
X0053264Y0097830D01*
X0053319Y0097717D01*
X0053371Y0097603D01*
X0053419Y0097486D01*
X0053464Y0097369D01*
X0053504Y0097250D01*
X0053541Y0097130D01*
X0053574Y0097009D01*
X0053604Y0096887D01*
X0053629Y0096764D01*
X0053651Y0096640D01*
X0053668Y0096515D01*
X0053682Y0096390D01*
X0053692Y0096265D01*
X0053698Y0096140D01*
X0053700Y0096014D01*
X0061200Y0096014D01*
X0061200Y0196014D01*
X0038200Y0196014D01*
X0038200Y0096014D01*
D14*
X0040569Y0094318D02*
X0040569Y0089714D01*
X0039035Y0089714D02*
X0042104Y0089714D01*
X0043639Y0090481D02*
X0044406Y0089714D01*
X0045941Y0089714D01*
X0046708Y0090481D01*
X0046708Y0093550D01*
X0045941Y0094318D01*
X0044406Y0094318D01*
X0043639Y0093550D01*
X0042104Y0092783D02*
X0040569Y0094318D01*
X0048243Y0094318D02*
X0049777Y0094318D01*
X0049010Y0094318D02*
X0049010Y0089714D01*
X0049777Y0089714D02*
X0048243Y0089714D01*
D15*
X0081983Y0022904D02*
X0081983Y0009124D01*
X0117417Y0009124D01*
X0117417Y0022904D01*
X0115448Y0022904D01*
X0083952Y0022904D02*
X0081983Y0022904D01*
D16*
X0095342Y0011214D02*
X0096810Y0011214D01*
X0096076Y0011214D02*
X0096076Y0013416D01*
X0096810Y0012682D01*
X0097552Y0013049D02*
X0097919Y0013416D01*
X0098653Y0013416D01*
X0099020Y0013049D01*
X0099020Y0012682D01*
X0098653Y0012315D01*
X0097919Y0012315D01*
X0097552Y0011948D01*
X0097552Y0011581D01*
X0097919Y0011214D01*
X0098653Y0011214D01*
X0099020Y0011581D01*
M02*
