G75*
%MOIN*%
%OFA0B0*%
%FSLAX25Y25*%
%IPPOS*%
%LPD*%
%AMOC8*
5,1,8,0,0,1.08239X$1,22.5*
%
%ADD10C,0.00000*%
%ADD11R,0.06299X0.07087*%
%ADD12R,0.07087X0.06299*%
%ADD13R,0.07000X0.07000*%
%ADD14C,0.05200*%
%ADD15R,0.04724X0.09843*%
%ADD16R,0.07283X0.07283*%
%ADD17C,0.07283*%
%ADD18R,0.06500X0.06500*%
%ADD19C,0.06500*%
%ADD20OC8,0.06300*%
%ADD21C,0.06300*%
%ADD22C,0.02400*%
%ADD23R,0.05906X0.05906*%
%ADD24C,0.01600*%
%ADD25C,0.05000*%
%ADD26R,0.05000X0.05000*%
D10*
X0002200Y0006014D02*
X0079700Y0006014D01*
X0079700Y0018514D01*
X0124700Y0018514D01*
X0124700Y0221014D01*
X0124651Y0220974D02*
X0002200Y0220974D01*
X0002200Y0006014D01*
X0083952Y0016014D02*
X0083954Y0016098D01*
X0083960Y0016181D01*
X0083970Y0016264D01*
X0083984Y0016347D01*
X0084001Y0016429D01*
X0084023Y0016510D01*
X0084048Y0016589D01*
X0084077Y0016668D01*
X0084110Y0016745D01*
X0084146Y0016820D01*
X0084186Y0016894D01*
X0084229Y0016966D01*
X0084276Y0017035D01*
X0084326Y0017102D01*
X0084379Y0017167D01*
X0084435Y0017229D01*
X0084493Y0017289D01*
X0084555Y0017346D01*
X0084619Y0017399D01*
X0084686Y0017450D01*
X0084755Y0017497D01*
X0084826Y0017542D01*
X0084899Y0017582D01*
X0084974Y0017619D01*
X0085051Y0017653D01*
X0085129Y0017683D01*
X0085208Y0017709D01*
X0085289Y0017732D01*
X0085371Y0017750D01*
X0085453Y0017765D01*
X0085536Y0017776D01*
X0085619Y0017783D01*
X0085703Y0017786D01*
X0085787Y0017785D01*
X0085870Y0017780D01*
X0085954Y0017771D01*
X0086036Y0017758D01*
X0086118Y0017742D01*
X0086199Y0017721D01*
X0086280Y0017697D01*
X0086358Y0017669D01*
X0086436Y0017637D01*
X0086512Y0017601D01*
X0086586Y0017562D01*
X0086658Y0017520D01*
X0086728Y0017474D01*
X0086796Y0017425D01*
X0086861Y0017373D01*
X0086924Y0017318D01*
X0086984Y0017260D01*
X0087042Y0017199D01*
X0087096Y0017135D01*
X0087148Y0017069D01*
X0087196Y0017001D01*
X0087241Y0016930D01*
X0087282Y0016857D01*
X0087321Y0016783D01*
X0087355Y0016707D01*
X0087386Y0016629D01*
X0087413Y0016550D01*
X0087437Y0016469D01*
X0087456Y0016388D01*
X0087472Y0016306D01*
X0087484Y0016223D01*
X0087492Y0016139D01*
X0087496Y0016056D01*
X0087496Y0015972D01*
X0087492Y0015889D01*
X0087484Y0015805D01*
X0087472Y0015722D01*
X0087456Y0015640D01*
X0087437Y0015559D01*
X0087413Y0015478D01*
X0087386Y0015399D01*
X0087355Y0015321D01*
X0087321Y0015245D01*
X0087282Y0015171D01*
X0087241Y0015098D01*
X0087196Y0015027D01*
X0087148Y0014959D01*
X0087096Y0014893D01*
X0087042Y0014829D01*
X0086984Y0014768D01*
X0086924Y0014710D01*
X0086861Y0014655D01*
X0086796Y0014603D01*
X0086728Y0014554D01*
X0086658Y0014508D01*
X0086586Y0014466D01*
X0086512Y0014427D01*
X0086436Y0014391D01*
X0086358Y0014359D01*
X0086280Y0014331D01*
X0086199Y0014307D01*
X0086118Y0014286D01*
X0086036Y0014270D01*
X0085954Y0014257D01*
X0085870Y0014248D01*
X0085787Y0014243D01*
X0085703Y0014242D01*
X0085619Y0014245D01*
X0085536Y0014252D01*
X0085453Y0014263D01*
X0085371Y0014278D01*
X0085289Y0014296D01*
X0085208Y0014319D01*
X0085129Y0014345D01*
X0085051Y0014375D01*
X0084974Y0014409D01*
X0084899Y0014446D01*
X0084826Y0014486D01*
X0084755Y0014531D01*
X0084686Y0014578D01*
X0084619Y0014629D01*
X0084555Y0014682D01*
X0084493Y0014739D01*
X0084435Y0014799D01*
X0084379Y0014861D01*
X0084326Y0014926D01*
X0084276Y0014993D01*
X0084229Y0015062D01*
X0084186Y0015134D01*
X0084146Y0015208D01*
X0084110Y0015283D01*
X0084077Y0015360D01*
X0084048Y0015439D01*
X0084023Y0015518D01*
X0084001Y0015599D01*
X0083984Y0015681D01*
X0083970Y0015764D01*
X0083960Y0015847D01*
X0083954Y0015930D01*
X0083952Y0016014D01*
X0111904Y0016014D02*
X0111906Y0016098D01*
X0111912Y0016181D01*
X0111922Y0016264D01*
X0111936Y0016347D01*
X0111953Y0016429D01*
X0111975Y0016510D01*
X0112000Y0016589D01*
X0112029Y0016668D01*
X0112062Y0016745D01*
X0112098Y0016820D01*
X0112138Y0016894D01*
X0112181Y0016966D01*
X0112228Y0017035D01*
X0112278Y0017102D01*
X0112331Y0017167D01*
X0112387Y0017229D01*
X0112445Y0017289D01*
X0112507Y0017346D01*
X0112571Y0017399D01*
X0112638Y0017450D01*
X0112707Y0017497D01*
X0112778Y0017542D01*
X0112851Y0017582D01*
X0112926Y0017619D01*
X0113003Y0017653D01*
X0113081Y0017683D01*
X0113160Y0017709D01*
X0113241Y0017732D01*
X0113323Y0017750D01*
X0113405Y0017765D01*
X0113488Y0017776D01*
X0113571Y0017783D01*
X0113655Y0017786D01*
X0113739Y0017785D01*
X0113822Y0017780D01*
X0113906Y0017771D01*
X0113988Y0017758D01*
X0114070Y0017742D01*
X0114151Y0017721D01*
X0114232Y0017697D01*
X0114310Y0017669D01*
X0114388Y0017637D01*
X0114464Y0017601D01*
X0114538Y0017562D01*
X0114610Y0017520D01*
X0114680Y0017474D01*
X0114748Y0017425D01*
X0114813Y0017373D01*
X0114876Y0017318D01*
X0114936Y0017260D01*
X0114994Y0017199D01*
X0115048Y0017135D01*
X0115100Y0017069D01*
X0115148Y0017001D01*
X0115193Y0016930D01*
X0115234Y0016857D01*
X0115273Y0016783D01*
X0115307Y0016707D01*
X0115338Y0016629D01*
X0115365Y0016550D01*
X0115389Y0016469D01*
X0115408Y0016388D01*
X0115424Y0016306D01*
X0115436Y0016223D01*
X0115444Y0016139D01*
X0115448Y0016056D01*
X0115448Y0015972D01*
X0115444Y0015889D01*
X0115436Y0015805D01*
X0115424Y0015722D01*
X0115408Y0015640D01*
X0115389Y0015559D01*
X0115365Y0015478D01*
X0115338Y0015399D01*
X0115307Y0015321D01*
X0115273Y0015245D01*
X0115234Y0015171D01*
X0115193Y0015098D01*
X0115148Y0015027D01*
X0115100Y0014959D01*
X0115048Y0014893D01*
X0114994Y0014829D01*
X0114936Y0014768D01*
X0114876Y0014710D01*
X0114813Y0014655D01*
X0114748Y0014603D01*
X0114680Y0014554D01*
X0114610Y0014508D01*
X0114538Y0014466D01*
X0114464Y0014427D01*
X0114388Y0014391D01*
X0114310Y0014359D01*
X0114232Y0014331D01*
X0114151Y0014307D01*
X0114070Y0014286D01*
X0113988Y0014270D01*
X0113906Y0014257D01*
X0113822Y0014248D01*
X0113739Y0014243D01*
X0113655Y0014242D01*
X0113571Y0014245D01*
X0113488Y0014252D01*
X0113405Y0014263D01*
X0113323Y0014278D01*
X0113241Y0014296D01*
X0113160Y0014319D01*
X0113081Y0014345D01*
X0113003Y0014375D01*
X0112926Y0014409D01*
X0112851Y0014446D01*
X0112778Y0014486D01*
X0112707Y0014531D01*
X0112638Y0014578D01*
X0112571Y0014629D01*
X0112507Y0014682D01*
X0112445Y0014739D01*
X0112387Y0014799D01*
X0112331Y0014861D01*
X0112278Y0014926D01*
X0112228Y0014993D01*
X0112181Y0015062D01*
X0112138Y0015134D01*
X0112098Y0015208D01*
X0112062Y0015283D01*
X0112029Y0015360D01*
X0112000Y0015439D01*
X0111975Y0015518D01*
X0111953Y0015599D01*
X0111936Y0015681D01*
X0111922Y0015764D01*
X0111912Y0015847D01*
X0111906Y0015930D01*
X0111904Y0016014D01*
X0110763Y0056014D02*
X0110765Y0056139D01*
X0110771Y0056264D01*
X0110781Y0056388D01*
X0110795Y0056512D01*
X0110812Y0056636D01*
X0110834Y0056759D01*
X0110860Y0056881D01*
X0110889Y0057003D01*
X0110922Y0057123D01*
X0110960Y0057242D01*
X0111000Y0057361D01*
X0111045Y0057477D01*
X0111093Y0057592D01*
X0111145Y0057706D01*
X0111201Y0057818D01*
X0111260Y0057928D01*
X0111322Y0058036D01*
X0111388Y0058143D01*
X0111457Y0058247D01*
X0111530Y0058348D01*
X0111605Y0058448D01*
X0111684Y0058545D01*
X0111766Y0058639D01*
X0111851Y0058731D01*
X0111938Y0058820D01*
X0112029Y0058906D01*
X0112122Y0058989D01*
X0112218Y0059070D01*
X0112316Y0059147D01*
X0112416Y0059221D01*
X0112519Y0059292D01*
X0112624Y0059359D01*
X0112732Y0059424D01*
X0112841Y0059484D01*
X0112952Y0059542D01*
X0113065Y0059595D01*
X0113179Y0059645D01*
X0113295Y0059692D01*
X0113412Y0059734D01*
X0113531Y0059773D01*
X0113651Y0059809D01*
X0113772Y0059840D01*
X0113894Y0059868D01*
X0114016Y0059891D01*
X0114140Y0059911D01*
X0114264Y0059927D01*
X0114388Y0059939D01*
X0114513Y0059947D01*
X0114638Y0059951D01*
X0114762Y0059951D01*
X0114887Y0059947D01*
X0115012Y0059939D01*
X0115136Y0059927D01*
X0115260Y0059911D01*
X0115384Y0059891D01*
X0115506Y0059868D01*
X0115628Y0059840D01*
X0115749Y0059809D01*
X0115869Y0059773D01*
X0115988Y0059734D01*
X0116105Y0059692D01*
X0116221Y0059645D01*
X0116335Y0059595D01*
X0116448Y0059542D01*
X0116559Y0059484D01*
X0116669Y0059424D01*
X0116776Y0059359D01*
X0116881Y0059292D01*
X0116984Y0059221D01*
X0117084Y0059147D01*
X0117182Y0059070D01*
X0117278Y0058989D01*
X0117371Y0058906D01*
X0117462Y0058820D01*
X0117549Y0058731D01*
X0117634Y0058639D01*
X0117716Y0058545D01*
X0117795Y0058448D01*
X0117870Y0058348D01*
X0117943Y0058247D01*
X0118012Y0058143D01*
X0118078Y0058036D01*
X0118140Y0057928D01*
X0118199Y0057818D01*
X0118255Y0057706D01*
X0118307Y0057592D01*
X0118355Y0057477D01*
X0118400Y0057361D01*
X0118440Y0057242D01*
X0118478Y0057123D01*
X0118511Y0057003D01*
X0118540Y0056881D01*
X0118566Y0056759D01*
X0118588Y0056636D01*
X0118605Y0056512D01*
X0118619Y0056388D01*
X0118629Y0056264D01*
X0118635Y0056139D01*
X0118637Y0056014D01*
X0118635Y0055889D01*
X0118629Y0055764D01*
X0118619Y0055640D01*
X0118605Y0055516D01*
X0118588Y0055392D01*
X0118566Y0055269D01*
X0118540Y0055147D01*
X0118511Y0055025D01*
X0118478Y0054905D01*
X0118440Y0054786D01*
X0118400Y0054667D01*
X0118355Y0054551D01*
X0118307Y0054436D01*
X0118255Y0054322D01*
X0118199Y0054210D01*
X0118140Y0054100D01*
X0118078Y0053992D01*
X0118012Y0053885D01*
X0117943Y0053781D01*
X0117870Y0053680D01*
X0117795Y0053580D01*
X0117716Y0053483D01*
X0117634Y0053389D01*
X0117549Y0053297D01*
X0117462Y0053208D01*
X0117371Y0053122D01*
X0117278Y0053039D01*
X0117182Y0052958D01*
X0117084Y0052881D01*
X0116984Y0052807D01*
X0116881Y0052736D01*
X0116776Y0052669D01*
X0116668Y0052604D01*
X0116559Y0052544D01*
X0116448Y0052486D01*
X0116335Y0052433D01*
X0116221Y0052383D01*
X0116105Y0052336D01*
X0115988Y0052294D01*
X0115869Y0052255D01*
X0115749Y0052219D01*
X0115628Y0052188D01*
X0115506Y0052160D01*
X0115384Y0052137D01*
X0115260Y0052117D01*
X0115136Y0052101D01*
X0115012Y0052089D01*
X0114887Y0052081D01*
X0114762Y0052077D01*
X0114638Y0052077D01*
X0114513Y0052081D01*
X0114388Y0052089D01*
X0114264Y0052101D01*
X0114140Y0052117D01*
X0114016Y0052137D01*
X0113894Y0052160D01*
X0113772Y0052188D01*
X0113651Y0052219D01*
X0113531Y0052255D01*
X0113412Y0052294D01*
X0113295Y0052336D01*
X0113179Y0052383D01*
X0113065Y0052433D01*
X0112952Y0052486D01*
X0112841Y0052544D01*
X0112731Y0052604D01*
X0112624Y0052669D01*
X0112519Y0052736D01*
X0112416Y0052807D01*
X0112316Y0052881D01*
X0112218Y0052958D01*
X0112122Y0053039D01*
X0112029Y0053122D01*
X0111938Y0053208D01*
X0111851Y0053297D01*
X0111766Y0053389D01*
X0111684Y0053483D01*
X0111605Y0053580D01*
X0111530Y0053680D01*
X0111457Y0053781D01*
X0111388Y0053885D01*
X0111322Y0053992D01*
X0111260Y0054100D01*
X0111201Y0054210D01*
X0111145Y0054322D01*
X0111093Y0054436D01*
X0111045Y0054551D01*
X0111000Y0054667D01*
X0110960Y0054786D01*
X0110922Y0054905D01*
X0110889Y0055025D01*
X0110860Y0055147D01*
X0110834Y0055269D01*
X0110812Y0055392D01*
X0110795Y0055516D01*
X0110781Y0055640D01*
X0110771Y0055764D01*
X0110765Y0055889D01*
X0110763Y0056014D01*
X0110763Y0148514D02*
X0110765Y0148639D01*
X0110771Y0148764D01*
X0110781Y0148888D01*
X0110795Y0149012D01*
X0110812Y0149136D01*
X0110834Y0149259D01*
X0110860Y0149381D01*
X0110889Y0149503D01*
X0110922Y0149623D01*
X0110960Y0149742D01*
X0111000Y0149861D01*
X0111045Y0149977D01*
X0111093Y0150092D01*
X0111145Y0150206D01*
X0111201Y0150318D01*
X0111260Y0150428D01*
X0111322Y0150536D01*
X0111388Y0150643D01*
X0111457Y0150747D01*
X0111530Y0150848D01*
X0111605Y0150948D01*
X0111684Y0151045D01*
X0111766Y0151139D01*
X0111851Y0151231D01*
X0111938Y0151320D01*
X0112029Y0151406D01*
X0112122Y0151489D01*
X0112218Y0151570D01*
X0112316Y0151647D01*
X0112416Y0151721D01*
X0112519Y0151792D01*
X0112624Y0151859D01*
X0112732Y0151924D01*
X0112841Y0151984D01*
X0112952Y0152042D01*
X0113065Y0152095D01*
X0113179Y0152145D01*
X0113295Y0152192D01*
X0113412Y0152234D01*
X0113531Y0152273D01*
X0113651Y0152309D01*
X0113772Y0152340D01*
X0113894Y0152368D01*
X0114016Y0152391D01*
X0114140Y0152411D01*
X0114264Y0152427D01*
X0114388Y0152439D01*
X0114513Y0152447D01*
X0114638Y0152451D01*
X0114762Y0152451D01*
X0114887Y0152447D01*
X0115012Y0152439D01*
X0115136Y0152427D01*
X0115260Y0152411D01*
X0115384Y0152391D01*
X0115506Y0152368D01*
X0115628Y0152340D01*
X0115749Y0152309D01*
X0115869Y0152273D01*
X0115988Y0152234D01*
X0116105Y0152192D01*
X0116221Y0152145D01*
X0116335Y0152095D01*
X0116448Y0152042D01*
X0116559Y0151984D01*
X0116669Y0151924D01*
X0116776Y0151859D01*
X0116881Y0151792D01*
X0116984Y0151721D01*
X0117084Y0151647D01*
X0117182Y0151570D01*
X0117278Y0151489D01*
X0117371Y0151406D01*
X0117462Y0151320D01*
X0117549Y0151231D01*
X0117634Y0151139D01*
X0117716Y0151045D01*
X0117795Y0150948D01*
X0117870Y0150848D01*
X0117943Y0150747D01*
X0118012Y0150643D01*
X0118078Y0150536D01*
X0118140Y0150428D01*
X0118199Y0150318D01*
X0118255Y0150206D01*
X0118307Y0150092D01*
X0118355Y0149977D01*
X0118400Y0149861D01*
X0118440Y0149742D01*
X0118478Y0149623D01*
X0118511Y0149503D01*
X0118540Y0149381D01*
X0118566Y0149259D01*
X0118588Y0149136D01*
X0118605Y0149012D01*
X0118619Y0148888D01*
X0118629Y0148764D01*
X0118635Y0148639D01*
X0118637Y0148514D01*
X0118635Y0148389D01*
X0118629Y0148264D01*
X0118619Y0148140D01*
X0118605Y0148016D01*
X0118588Y0147892D01*
X0118566Y0147769D01*
X0118540Y0147647D01*
X0118511Y0147525D01*
X0118478Y0147405D01*
X0118440Y0147286D01*
X0118400Y0147167D01*
X0118355Y0147051D01*
X0118307Y0146936D01*
X0118255Y0146822D01*
X0118199Y0146710D01*
X0118140Y0146600D01*
X0118078Y0146492D01*
X0118012Y0146385D01*
X0117943Y0146281D01*
X0117870Y0146180D01*
X0117795Y0146080D01*
X0117716Y0145983D01*
X0117634Y0145889D01*
X0117549Y0145797D01*
X0117462Y0145708D01*
X0117371Y0145622D01*
X0117278Y0145539D01*
X0117182Y0145458D01*
X0117084Y0145381D01*
X0116984Y0145307D01*
X0116881Y0145236D01*
X0116776Y0145169D01*
X0116668Y0145104D01*
X0116559Y0145044D01*
X0116448Y0144986D01*
X0116335Y0144933D01*
X0116221Y0144883D01*
X0116105Y0144836D01*
X0115988Y0144794D01*
X0115869Y0144755D01*
X0115749Y0144719D01*
X0115628Y0144688D01*
X0115506Y0144660D01*
X0115384Y0144637D01*
X0115260Y0144617D01*
X0115136Y0144601D01*
X0115012Y0144589D01*
X0114887Y0144581D01*
X0114762Y0144577D01*
X0114638Y0144577D01*
X0114513Y0144581D01*
X0114388Y0144589D01*
X0114264Y0144601D01*
X0114140Y0144617D01*
X0114016Y0144637D01*
X0113894Y0144660D01*
X0113772Y0144688D01*
X0113651Y0144719D01*
X0113531Y0144755D01*
X0113412Y0144794D01*
X0113295Y0144836D01*
X0113179Y0144883D01*
X0113065Y0144933D01*
X0112952Y0144986D01*
X0112841Y0145044D01*
X0112731Y0145104D01*
X0112624Y0145169D01*
X0112519Y0145236D01*
X0112416Y0145307D01*
X0112316Y0145381D01*
X0112218Y0145458D01*
X0112122Y0145539D01*
X0112029Y0145622D01*
X0111938Y0145708D01*
X0111851Y0145797D01*
X0111766Y0145889D01*
X0111684Y0145983D01*
X0111605Y0146080D01*
X0111530Y0146180D01*
X0111457Y0146281D01*
X0111388Y0146385D01*
X0111322Y0146492D01*
X0111260Y0146600D01*
X0111201Y0146710D01*
X0111145Y0146822D01*
X0111093Y0146936D01*
X0111045Y0147051D01*
X0111000Y0147167D01*
X0110960Y0147286D01*
X0110922Y0147405D01*
X0110889Y0147525D01*
X0110860Y0147647D01*
X0110834Y0147769D01*
X0110812Y0147892D01*
X0110795Y0148016D01*
X0110781Y0148140D01*
X0110771Y0148264D01*
X0110765Y0148389D01*
X0110763Y0148514D01*
D11*
X0055212Y0073514D03*
X0044188Y0073514D03*
D12*
X0027200Y0071526D03*
X0027200Y0060502D03*
X0017200Y0060502D03*
X0017200Y0071526D03*
D13*
X0019700Y0091014D03*
X0019700Y0101014D03*
X0019700Y0111014D03*
X0019700Y0121014D03*
X0019700Y0131014D03*
X0019700Y0141014D03*
X0019700Y0151014D03*
X0019700Y0161014D03*
X0019700Y0171014D03*
X0019700Y0181014D03*
X0019700Y0191014D03*
X0019700Y0201014D03*
X0079700Y0201014D03*
X0079700Y0191014D03*
X0079700Y0181014D03*
X0079700Y0171014D03*
X0079700Y0161014D03*
X0079700Y0151014D03*
X0079700Y0141014D03*
X0079700Y0131014D03*
X0079700Y0121014D03*
X0079700Y0111014D03*
X0079700Y0101014D03*
X0079700Y0091014D03*
D14*
X0067300Y0101014D02*
X0062100Y0101014D01*
X0062100Y0111014D02*
X0067300Y0111014D01*
X0067300Y0121014D02*
X0062100Y0121014D01*
X0062100Y0131014D02*
X0067300Y0131014D01*
X0067300Y0141014D02*
X0062100Y0141014D01*
X0062100Y0151014D02*
X0067300Y0151014D01*
X0067300Y0161014D02*
X0062100Y0161014D01*
X0062100Y0171014D02*
X0067300Y0171014D01*
X0067300Y0181014D02*
X0062100Y0181014D01*
X0062100Y0191014D02*
X0067300Y0191014D01*
X0037300Y0191014D02*
X0032100Y0191014D01*
X0032100Y0181014D02*
X0037300Y0181014D01*
X0037300Y0171014D02*
X0032100Y0171014D01*
X0032100Y0161014D02*
X0037300Y0161014D01*
X0037300Y0151014D02*
X0032100Y0151014D01*
X0032100Y0141014D02*
X0037300Y0141014D01*
X0037300Y0131014D02*
X0032100Y0131014D01*
X0032100Y0121014D02*
X0037300Y0121014D01*
X0037300Y0111014D02*
X0032100Y0111014D01*
X0032100Y0101014D02*
X0037300Y0101014D01*
D15*
X0089857Y0026841D03*
X0099700Y0026841D03*
X0109543Y0026841D03*
D16*
X0100310Y0203514D03*
D17*
X0114090Y0203514D03*
D18*
X0072200Y0048514D03*
X0027200Y0038514D03*
X0017200Y0038514D03*
D19*
X0017200Y0048514D03*
X0027200Y0048514D03*
X0052200Y0048514D03*
X0052200Y0038514D03*
X0062200Y0038514D03*
X0062200Y0048514D03*
X0072200Y0038514D03*
D20*
X0104700Y0176014D03*
D21*
X0114700Y0176014D03*
D22*
X0114090Y0176624D01*
X0114090Y0203514D01*
X0118500Y0212340D02*
X0116047Y0213355D01*
X0112132Y0213355D01*
X0108515Y0211857D01*
X0105746Y0209089D01*
X0105566Y0208653D01*
X0105303Y0208916D01*
X0104801Y0209206D01*
X0104242Y0209355D01*
X0100310Y0209355D01*
X0096379Y0209355D01*
X0095819Y0209206D01*
X0095318Y0208916D01*
X0094908Y0208506D01*
X0094618Y0208005D01*
X0094469Y0207445D01*
X0094469Y0204210D01*
X0091392Y0207287D01*
X0088672Y0208414D01*
X0088068Y0208414D01*
X0086712Y0209770D01*
X0084433Y0210714D01*
X0074967Y0210714D01*
X0072688Y0209770D01*
X0070944Y0208026D01*
X0070676Y0207379D01*
X0070634Y0207479D01*
X0068665Y0209448D01*
X0066165Y0211948D01*
X0063592Y0213014D01*
X0028308Y0213014D01*
X0025735Y0211948D01*
X0024481Y0210694D01*
X0024433Y0210714D01*
X0014967Y0210714D01*
X0012688Y0209770D01*
X0010944Y0208026D01*
X0010000Y0205747D01*
X0010000Y0196281D01*
X0010110Y0196014D01*
X0010000Y0195747D01*
X0010000Y0186281D01*
X0010944Y0184002D01*
X0012688Y0182258D01*
X0014000Y0181714D01*
X0014000Y0181014D01*
X0019700Y0181014D01*
X0019700Y0181014D01*
X0023300Y0181014D01*
X0023300Y0181014D01*
X0019700Y0181014D01*
X0019700Y0181014D01*
X0019700Y0171014D01*
X0019700Y0171014D01*
X0019700Y0181014D01*
X0014000Y0181014D01*
X0014000Y0177224D01*
X0014150Y0176665D01*
X0014440Y0176163D01*
X0014589Y0176014D01*
X0014440Y0175865D01*
X0014150Y0175363D01*
X0014000Y0174803D01*
X0014000Y0171014D01*
X0019700Y0171014D01*
X0019700Y0176714D01*
X0019700Y0181014D01*
X0019700Y0181014D01*
X0019700Y0178669D02*
X0019700Y0178669D01*
X0019700Y0176271D02*
X0019700Y0176271D01*
X0019700Y0173872D02*
X0019700Y0173872D01*
X0019700Y0171474D02*
X0019700Y0171474D01*
X0019700Y0171014D02*
X0019700Y0171014D01*
X0012200Y0171014D01*
X0009700Y0173514D01*
X0009700Y0213514D01*
X0012200Y0216014D01*
X0067200Y0216014D01*
X0072200Y0211014D01*
X0077200Y0216014D01*
X0087200Y0216014D01*
X0099700Y0203514D01*
X0100310Y0203514D02*
X0095165Y0203514D01*
X0095165Y0203514D01*
X0100310Y0203514D01*
X0100310Y0209355D01*
X0100310Y0203514D01*
X0100310Y0203514D01*
X0100310Y0203514D01*
X0102200Y0201624D01*
X0102200Y0183514D01*
X0104700Y0181014D01*
X0104700Y0176014D01*
X0104700Y0176014D01*
X0104700Y0181364D01*
X0102484Y0181364D01*
X0102100Y0180980D01*
X0102100Y0194986D01*
X0100987Y0197672D01*
X0104242Y0197672D01*
X0104801Y0197822D01*
X0105303Y0198112D01*
X0105566Y0198375D01*
X0105746Y0197939D01*
X0106690Y0196995D01*
X0106690Y0181364D01*
X0104700Y0181364D01*
X0104700Y0176014D01*
X0104700Y0170664D01*
X0106827Y0170664D01*
X0107812Y0169679D01*
X0107812Y0169591D01*
X0102100Y0163879D01*
X0102100Y0171048D01*
X0102484Y0170664D01*
X0104700Y0170664D01*
X0104700Y0176014D01*
X0104700Y0176014D01*
X0104700Y0176271D02*
X0104700Y0176271D01*
X0104700Y0178669D02*
X0104700Y0178669D01*
X0104700Y0181068D02*
X0104700Y0181068D01*
X0102188Y0181068D02*
X0102100Y0181068D01*
X0102100Y0183466D02*
X0106690Y0183466D01*
X0106690Y0185865D02*
X0102100Y0185865D01*
X0102100Y0188263D02*
X0106690Y0188263D01*
X0106690Y0190662D02*
X0102100Y0190662D01*
X0102100Y0193060D02*
X0106690Y0193060D01*
X0106690Y0195459D02*
X0101904Y0195459D01*
X0104863Y0197857D02*
X0105828Y0197857D01*
X0100310Y0205053D02*
X0100310Y0205053D01*
X0100310Y0207452D02*
X0100310Y0207452D01*
X0094470Y0207452D02*
X0090995Y0207452D01*
X0093626Y0205053D02*
X0094469Y0205053D01*
X0087200Y0201014D02*
X0094700Y0193514D01*
X0094700Y0043514D01*
X0099700Y0038514D01*
X0099700Y0026841D01*
X0109543Y0026841D02*
X0109700Y0026683D01*
X0109700Y0026998D02*
X0109700Y0043514D01*
X0104700Y0048514D01*
X0104700Y0053514D01*
X0102200Y0056014D01*
X0102200Y0153514D01*
X0115212Y0166526D01*
X0115212Y0175502D01*
X0114700Y0176014D01*
X0107296Y0169075D02*
X0102100Y0169075D01*
X0102100Y0166677D02*
X0104898Y0166677D01*
X0102499Y0164278D02*
X0102100Y0164278D01*
X0104700Y0171474D02*
X0104700Y0171474D01*
X0104700Y0173872D02*
X0104700Y0173872D01*
X0089700Y0188514D02*
X0089700Y0083514D01*
X0087200Y0081014D01*
X0074700Y0081014D01*
X0074700Y0071014D01*
X0072200Y0068514D01*
X0072200Y0048514D01*
X0072200Y0048514D01*
X0072200Y0053964D01*
X0075740Y0053964D01*
X0076299Y0053814D01*
X0076801Y0053524D01*
X0077210Y0053115D01*
X0077500Y0052613D01*
X0077650Y0052053D01*
X0077650Y0049429D01*
X0078500Y0050279D01*
X0078500Y0052247D01*
X0079444Y0054526D01*
X0081188Y0056270D01*
X0083467Y0057214D01*
X0087300Y0057214D01*
X0087300Y0082846D01*
X0086712Y0082258D01*
X0084433Y0081314D01*
X0074967Y0081314D01*
X0072688Y0082258D01*
X0072100Y0082846D01*
X0072100Y0067042D01*
X0070973Y0064322D01*
X0068892Y0062240D01*
X0064458Y0057807D01*
X0067553Y0056525D01*
X0070114Y0053964D01*
X0072200Y0053964D01*
X0072200Y0048514D01*
X0072200Y0038514D01*
X0072200Y0038514D01*
X0072200Y0048514D01*
X0072200Y0048514D01*
X0072200Y0043964D01*
X0072200Y0038514D01*
X0072200Y0039556D02*
X0072200Y0039556D01*
X0072200Y0041954D02*
X0072200Y0041954D01*
X0072200Y0044353D02*
X0072200Y0044353D01*
X0072200Y0046751D02*
X0072200Y0046751D01*
X0072200Y0049150D02*
X0072200Y0049150D01*
X0072200Y0051548D02*
X0072200Y0051548D01*
X0072200Y0053947D02*
X0072200Y0053947D01*
X0075803Y0053947D02*
X0079204Y0053947D01*
X0078500Y0051548D02*
X0077650Y0051548D01*
X0081370Y0056345D02*
X0067733Y0056345D01*
X0065395Y0058744D02*
X0087300Y0058744D01*
X0087300Y0061142D02*
X0067794Y0061142D01*
X0070192Y0063541D02*
X0087300Y0063541D01*
X0087300Y0065939D02*
X0071643Y0065939D01*
X0072100Y0068338D02*
X0087300Y0068338D01*
X0087300Y0070736D02*
X0072100Y0070736D01*
X0072100Y0073135D02*
X0087300Y0073135D01*
X0087300Y0075533D02*
X0072100Y0075533D01*
X0072100Y0077932D02*
X0087300Y0077932D01*
X0087300Y0080330D02*
X0072100Y0080330D01*
X0072100Y0082729D02*
X0072217Y0082729D01*
X0064700Y0088514D02*
X0067200Y0091014D01*
X0079700Y0091014D01*
X0087183Y0082729D02*
X0087300Y0082729D01*
X0064700Y0088514D02*
X0064700Y0068514D01*
X0052200Y0056014D01*
X0052200Y0048514D01*
X0052200Y0038514D02*
X0047200Y0038514D01*
X0044700Y0041014D01*
X0044700Y0058514D01*
X0054700Y0068514D01*
X0054700Y0073002D01*
X0055212Y0073514D01*
X0055212Y0080502D01*
X0052200Y0083514D01*
X0052200Y0088514D01*
X0044188Y0095502D02*
X0047200Y0098514D01*
X0062200Y0098514D01*
X0064700Y0101014D01*
X0044188Y0095502D02*
X0044188Y0073514D01*
X0044188Y0065502D01*
X0039700Y0061014D01*
X0039700Y0043514D01*
X0034700Y0038514D01*
X0027200Y0038514D01*
X0017200Y0038514D01*
X0017200Y0048514D02*
X0017200Y0060502D01*
X0012712Y0060502D01*
X0009700Y0063514D01*
X0009700Y0118514D01*
X0012200Y0121014D01*
X0019700Y0121014D01*
X0010000Y0128112D02*
X0008400Y0127449D01*
X0008400Y0214774D01*
X0118500Y0214774D01*
X0118500Y0212340D01*
X0118500Y0214647D02*
X0008400Y0214647D01*
X0008400Y0212249D02*
X0026460Y0212249D01*
X0012881Y0209850D02*
X0008400Y0209850D01*
X0008400Y0207452D02*
X0010706Y0207452D01*
X0010000Y0205053D02*
X0008400Y0205053D01*
X0008400Y0202654D02*
X0010000Y0202654D01*
X0010000Y0200256D02*
X0008400Y0200256D01*
X0008400Y0197857D02*
X0010000Y0197857D01*
X0010000Y0195459D02*
X0008400Y0195459D01*
X0008400Y0193060D02*
X0010000Y0193060D01*
X0010000Y0190662D02*
X0008400Y0190662D01*
X0008400Y0188263D02*
X0010000Y0188263D01*
X0010172Y0185865D02*
X0008400Y0185865D01*
X0008400Y0183466D02*
X0011479Y0183466D01*
X0014000Y0181068D02*
X0008400Y0181068D01*
X0008400Y0178669D02*
X0014000Y0178669D01*
X0014377Y0176271D02*
X0008400Y0176271D01*
X0008400Y0173872D02*
X0014000Y0173872D01*
X0014000Y0171474D02*
X0008400Y0171474D01*
X0008400Y0169075D02*
X0011993Y0169075D01*
X0012688Y0169770D02*
X0010944Y0168026D01*
X0010000Y0165747D01*
X0010000Y0156281D01*
X0010110Y0156014D01*
X0010000Y0155747D01*
X0010000Y0146281D01*
X0010110Y0146014D01*
X0010000Y0145747D01*
X0010000Y0136281D01*
X0010110Y0136014D01*
X0010000Y0135747D01*
X0010000Y0128112D01*
X0010000Y0128301D02*
X0008400Y0128301D01*
X0008400Y0130699D02*
X0010000Y0130699D01*
X0010000Y0133098D02*
X0008400Y0133098D01*
X0008400Y0135496D02*
X0010000Y0135496D01*
X0010000Y0137895D02*
X0008400Y0137895D01*
X0008400Y0140293D02*
X0010000Y0140293D01*
X0010000Y0142692D02*
X0008400Y0142692D01*
X0008400Y0145090D02*
X0010000Y0145090D01*
X0010000Y0147489D02*
X0008400Y0147489D01*
X0008400Y0149887D02*
X0010000Y0149887D01*
X0010000Y0152286D02*
X0008400Y0152286D01*
X0008400Y0154684D02*
X0010000Y0154684D01*
X0010000Y0157083D02*
X0008400Y0157083D01*
X0008400Y0159481D02*
X0010000Y0159481D01*
X0010000Y0161880D02*
X0008400Y0161880D01*
X0008400Y0164278D02*
X0010000Y0164278D01*
X0010385Y0166677D02*
X0008400Y0166677D01*
X0012688Y0169770D02*
X0014000Y0170313D01*
X0014000Y0171014D01*
X0019700Y0171014D01*
X0032099Y0191014D02*
X0032100Y0191014D01*
X0034700Y0191014D01*
X0042100Y0191014D01*
X0042100Y0191392D01*
X0041982Y0192138D01*
X0041748Y0192856D01*
X0041405Y0193530D01*
X0041053Y0194014D01*
X0047700Y0194014D01*
X0047700Y0187348D01*
X0046092Y0188014D01*
X0042745Y0188014D01*
X0042285Y0188474D01*
X0041548Y0188779D01*
X0041748Y0189171D01*
X0041982Y0189890D01*
X0042100Y0190636D01*
X0042100Y0191014D01*
X0034700Y0191014D01*
X0034700Y0191014D01*
X0034700Y0191014D01*
X0032099Y0191014D01*
X0041644Y0193060D02*
X0047700Y0193060D01*
X0047700Y0190662D02*
X0042100Y0190662D01*
X0042495Y0188263D02*
X0047700Y0188263D01*
X0065440Y0212249D02*
X0109460Y0212249D01*
X0106508Y0209850D02*
X0086519Y0209850D01*
X0087200Y0201014D02*
X0079700Y0201014D01*
X0079700Y0191014D02*
X0087200Y0191014D01*
X0089700Y0188514D01*
X0072881Y0209850D02*
X0068263Y0209850D01*
X0070646Y0207452D02*
X0070706Y0207452D01*
X0032200Y0091014D02*
X0019700Y0091014D01*
X0019700Y0081014D02*
X0024700Y0081014D01*
X0024433Y0081314D02*
X0017100Y0081314D01*
X0017100Y0071900D01*
X0017575Y0071900D01*
X0026825Y0071900D01*
X0026825Y0071151D01*
X0021457Y0071151D01*
X0017575Y0071151D01*
X0017575Y0071900D01*
X0017575Y0076875D01*
X0021033Y0076875D01*
X0021592Y0076725D01*
X0022094Y0076436D01*
X0022200Y0076330D01*
X0022306Y0076436D01*
X0022808Y0076725D01*
X0023367Y0076875D01*
X0026825Y0076875D01*
X0026825Y0071900D01*
X0027300Y0071900D01*
X0027300Y0082846D01*
X0026712Y0082258D01*
X0024433Y0081314D01*
X0027300Y0080330D02*
X0017100Y0080330D01*
X0017200Y0078514D02*
X0019700Y0081014D01*
X0017200Y0078514D02*
X0017200Y0071526D01*
X0027200Y0071526D01*
X0027300Y0073135D02*
X0026825Y0073135D01*
X0026825Y0075533D02*
X0027300Y0075533D01*
X0027300Y0077932D02*
X0017100Y0077932D01*
X0017100Y0075533D02*
X0017575Y0075533D01*
X0017575Y0073135D02*
X0017100Y0073135D01*
X0027183Y0082729D02*
X0027300Y0082729D01*
X0034700Y0088514D02*
X0032200Y0091014D01*
X0034700Y0088514D02*
X0034700Y0063514D01*
X0031688Y0060502D01*
X0027200Y0060502D01*
X0027200Y0048514D01*
X0062200Y0048514D02*
X0062200Y0038514D01*
X0062200Y0031014D01*
X0064700Y0028514D01*
X0079700Y0028514D01*
X0082200Y0031014D01*
X0082200Y0043514D01*
X0087200Y0048514D01*
D23*
X0074700Y0081014D03*
X0052200Y0088514D03*
X0024700Y0081014D03*
X0052200Y0126014D03*
D24*
X0052200Y0173514D01*
X0044700Y0181014D01*
X0034700Y0181014D01*
X0034700Y0171014D01*
X0027200Y0158514D02*
X0023450Y0161014D01*
X0019700Y0161014D01*
X0027200Y0158514D02*
X0027200Y0103514D01*
X0029700Y0101014D01*
X0034700Y0101014D01*
X0044700Y0101014D01*
X0054700Y0111014D01*
X0064700Y0111014D01*
X0064700Y0101014D02*
X0069700Y0101014D01*
X0072200Y0103514D01*
X0072200Y0168514D01*
X0074700Y0171014D01*
X0079700Y0171014D01*
X0079700Y0191014D02*
X0074700Y0191014D01*
X0072200Y0193514D01*
X0072200Y0211014D01*
X0064700Y0203514D02*
X0064700Y0191014D01*
X0064700Y0181014D02*
X0057200Y0181014D01*
X0054700Y0183514D01*
X0054700Y0198514D01*
X0052200Y0201014D01*
X0032200Y0201014D01*
X0022200Y0191014D01*
X0019700Y0191014D01*
X0019700Y0201014D02*
X0024700Y0201014D01*
X0029700Y0206014D01*
X0062200Y0206014D01*
X0064700Y0203514D01*
X0034700Y0191014D02*
X0032200Y0191014D01*
X0022200Y0181014D01*
X0019700Y0181014D01*
D25*
X0109700Y0026998D02*
X0109543Y0026841D01*
D26*
X0104700Y0048514D03*
X0087200Y0048514D03*
M02*
